<?xml version="1.0" encoding="utf-8"?>
<!-- Generator: Adobe Illustrator 21.0.2, SVG Export Plug-In . SVG Version: 6.00 Build 0)  -->
<svg version="1.1" id="Layer_1" xmlns="http://www.w3.org/2000/svg" xmlns:xlink="http://www.w3.org/1999/xlink" x="0px" y="0px"
	 viewBox="0 0 313 86.7" style="enable-background:new 0 0 313 86.7;" xml:space="preserve">
<style type="text/css">
	.st0{fill:#00B336;}
	.st1{fill:#005F4B;}
	.st2{fill:#006D59;}
</style>
<title>Veeam_user_group</title>
<g>
	<g>
		<g>
			<path class="st0" d="M32.6,10.2c-0.9-0.5-2.1-0.1-2.6,0.8L17.9,34.4c-0.2,0.5-0.6,0.7-0.9,0.7c-0.4,0-0.7-0.3-0.9-0.7L3.9,11
				c-0.5-1-1.7-1.3-2.6-0.8c-0.9,0.5-1.3,1.7-0.8,2.6l12.1,23.1c0.9,1.8,2.5,2.8,4.4,2.8c1.8,0,3.4-1,4.4-2.8l12.1-23.1
				C33.9,11.9,33.5,10.7,32.6,10.2z"/>
			<path class="st0" d="M47.2,9.4c-8,0-14.6,6.7-14.6,14.9c0,8.2,6.5,14.9,14.6,14.9c4.6,0,9-2.2,11.7-6c0.6-0.9,0.5-2.1-0.4-2.7
				c-0.8-0.6-2-0.5-2.7,0.4c-2.1,2.8-5.2,4.6-8.6,4.6c-5.3,0-9.7-4.1-10.6-9.2h23.2c1.1,0,1.9-0.9,1.9-2
				C61.8,16.1,55.3,9.4,47.2,9.4z M36.7,22.7c0.9-5.1,5.3-9.5,10.6-9.5c5.3,0,9.7,4.4,10.6,9.5H36.7z"/>
			<path class="st0" d="M165.5,10.1c-1.8-0.5-3.6,0.4-4.5,2l-11.1,21.6c-0.5,0.9-1.3,1-1.6,1h0h0c-0.3,0-1.2-0.1-1.6-1l-11.1-21.6
				c-0.9-1.7-2.7-2.5-4.5-2c-1.8,0.5-3,2-3,3.9v22.7c0,1.1,0.9,2,1.9,2c1.1,0,1.9-0.9,1.9-2V13.6c0-0.1,0-0.2,0.1-0.2
				c0.1,0,0.2,0.1,0.2,0.2l11.1,21.7c1,1.9,2.9,3.1,5,3.1c2.1,0,4-1.2,5-3.1l11.1-21.7c0-0.1,0.1-0.2,0.2-0.2c0.1,0,0.1,0.2,0.1,0.2
				v23.1c0,1.1,0.9,2,1.9,2c1.1,0,1.9-0.9,1.9-2V14C168.6,12.1,167.4,10.5,165.5,10.1z"/>
			<path class="st0" d="M78.9,9.4c-8,0-14.6,6.7-14.6,14.9c0,8.2,6.5,14.9,14.6,14.9c4.6,0,9-2.2,11.7-6c0.6-0.9,0.5-2.1-0.4-2.7
				c-0.8-0.6-2-0.5-2.7,0.4c-2.1,2.8-5.2,4.6-8.6,4.6c-5.3,0-9.7-4.1-10.6-9.2h23.2c1.1,0,1.9-0.9,1.9-2
				C93.5,16.1,86.9,9.4,78.9,9.4z M68.3,22.7c0.9-5.1,5.3-9.5,10.6-9.5s9.7,4.4,10.6,9.5H68.3z"/>
			<path class="st0" d="M113.1,12.7c-0.9-1.7-2.5-2.7-4.2-2.7c-1.8,0-3.4,1-4.2,2.7L92.5,35.8c-0.5,1-0.1,2.1,0.8,2.6
				c0.3,0.2,0.6,0.2,0.9,0.2c0.7,0,1.4-0.4,1.7-1l3.4-6.5h14c1,0,1.9-0.9,1.9-1.9c0-1.1-0.9-1.8-2-1.8l-11.9,0L108,14
				c0.2-0.4,0.5-0.6,0.8-0.6c0.3,0,0.6,0.2,0.8,0.6l12.1,23.6c0.5,1,1.7,1.3,2.6,0.8c0.9-0.5,1.2-1.8,0.7-2.8L113.1,12.7z"/>
		</g>
		<g>
			<path class="st1" d="M29.8,67.2V56h3.1v11c0,3.2,1.3,4.2,3.8,4.2c2.5,0,3.7-1,3.7-4.2V56h2.7v11.1c0,4.4-2.1,6.5-6.5,6.5
				C32.2,73.6,29.8,71.5,29.8,67.2z"/>
			<path class="st1" d="M45.4,72.5v-2.4c1.4,0.6,3.1,1.1,4.9,1.1c2.3,0,3.3-1,3.3-2.6c0-1.4-0.6-2-2.5-2.6l-1.6-0.5
				c-2.4-0.7-3.9-2-3.9-4.9c0-2.9,1.9-4.9,5.8-4.9c2.3,0,3.5,0.4,4.5,0.9V59c-1.1-0.4-2.5-0.9-4.4-0.9c-1.8,0-2.9,0.8-2.9,2.2
				c0,1.4,0.5,2,2.2,2.5l1.6,0.5c2.7,0.8,4.3,1.9,4.3,5c0,3.2-2,5.3-6.2,5.3C48.4,73.6,46.6,73.1,45.4,72.5z"/>
			<path class="st1" d="M59.3,56h10.8v2.4h-7.8v4.8h6v2.4h-6v5.3h7.9v2.4H59.3V56z"/>
			<path class="st1" d="M73.1,56h5.8c4,0,6,1.7,6,5.1c0,2.4-1.2,3.7-3.1,4.5v0.1l4.3,7.6h-3.3l-3.9-7h-2.7v7h-3V56z M78.6,64.2
				c2.3,0,3.2-1,3.2-3c0-2-0.9-2.8-3.2-2.8h-2.4v5.8H78.6z"/>
			<path class="st1" d="M91.8,65v-0.5c0-6.6,4-8.8,8.5-8.8c2.2,0,3.7,0.5,4.7,1v2.4c-1-0.4-2.4-1-4.7-1c-4.1,0-5.3,2.8-5.3,6V65
				c0,3.6,1,6.2,5.1,6.2c1,0,2.1-0.2,2.7-0.4v-4h-3.2v-2.3h6.2v8c-1.3,0.5-3.3,1-5.6,1C95,73.6,91.8,71.1,91.8,65z"/>
			<path class="st1" d="M108.7,56h5.8c4,0,6,1.7,6,5.1c0,2.4-1.2,3.7-3.1,4.5v0.1l4.3,7.6h-3.3l-3.9-7h-2.7v7h-3V56z M114.1,64.2
				c2.3,0,3.2-1,3.2-3c0-2-0.9-2.8-3.2-2.8h-2.4v5.8H114.1z"/>
			<path class="st1" d="M122.7,64.9v-0.5c0-5.6,3.2-8.7,7.9-8.7c4.7,0,7.8,2.9,7.8,8.7v0.5c0,5.6-3.2,8.7-7.9,8.7
				C125.8,73.6,122.7,70.6,122.7,64.9z M135.1,65.3v-0.8c0-3.9-1.3-6.3-4.7-6.3c-3.1,0-4.5,2.4-4.5,5.9v0.9c0,3.9,1.3,6.3,4.6,6.3
				C133.6,71.2,135.1,68.8,135.1,65.3z"/>
			<path class="st1" d="M140.8,67.2V56h3.1v11c0,3.2,1.3,4.2,3.8,4.2c2.5,0,3.7-1,3.7-4.2V56h2.7v11.1c0,4.4-2.1,6.5-6.5,6.5
				C143.2,73.6,140.8,71.5,140.8,67.2z"/>
			<path class="st1" d="M157.5,56h6c4.1,0,6.1,1.9,6.1,5.3c0,3.6-2.3,5.5-5.9,5.5h-3.2v6.5h-3V56z M163.2,64.5c2.3,0,3.2-1,3.2-3
				c0-2.3-0.9-3.1-3.2-3.1h-2.7v6.2H163.2z"/>
		</g>
	</g>
	<g>
		<path class="st2" d="M197.3,86.7c-0.5,0-0.8-0.4-0.8-0.8v-85c0-0.5,0.4-0.8,0.8-0.8s0.8,0.4,0.8,0.8v85
			C198.1,86.4,197.8,86.7,197.3,86.7z"/>
	</g>
	<g>
		<g>
			<g>
				<path class="st0" d="M286.9,7.8c1.5,0,2.6,1.2,2.6,2.6c0,12.8-10.4,23.3-23.3,23.3c-12.8,0-23.3-10.4-23.3-23.3
					c0-1.5,1.2-2.6,2.6-2.6s2.6,1.2,2.6,2.6c0,9.9,8.1,18,18,18c9.9,0,18-8.1,18-18C284.3,8.9,285.5,7.8,286.9,7.8 M286.9,4.8
					c-3.1,0-5.6,2.5-5.6,5.6c0,8.3-6.7,15-15,15s-15-6.7-15-15c0-3.1-2.5-5.6-5.6-5.6c-3.1,0-5.6,2.5-5.6,5.6
					c0,14.5,11.8,26.3,26.3,26.3c14.5,0,26.3-11.8,26.3-26.3C292.6,7.3,290.1,4.8,286.9,4.8L286.9,4.8z"/>
			</g>
		</g>
		<g>
			<path class="st0" d="M266.3,18.9c-3.1,0-6.2-1.6-7.9-4.5c-1.4-2.4-1.6-5.2-0.7-7.7c0.9-2.6,3-4.5,5.6-5.5
				c3.4-1.2,7.3-0.2,9.7,2.6c1.8,2.1,2.6,4.8,2.2,7.5c-0.4,2.7-2,5-4.4,6.4c0,0,0,0,0,0C269.4,18.5,267.9,18.9,266.3,18.9z
				 M270.1,16.4L270.1,16.4L270.1,16.4z M266.3,3.7c-0.7,0-1.3,0.1-1.9,0.3c-1.8,0.6-3.1,1.9-3.8,3.7c-0.6,1.7-0.5,3.6,0.4,5.2
				c1.7,2.9,5.4,3.9,8.3,2.2l0,0c1.6-0.9,2.7-2.5,3-4.3c0.3-1.8-0.2-3.6-1.5-5.1C269.7,4.4,268,3.7,266.3,3.7z"/>
		</g>
		<g>
			<g>
				<path class="st0" d="M237,37.7L237,37.7c8.3,0,16.1,4.5,20.2,11.6c6.4,11.1,2.6,25.4-8.5,31.8c-0.4,0.2-0.8,0.4-1.3,0.4
					c-0.9,0-1.8-0.5-2.3-1.3c-0.7-1.3-0.3-2.9,1-3.6c4.2-2.4,7.1-6.3,8.4-10.9c1.2-4.7,0.6-9.5-1.8-13.7c-3.2-5.6-9.2-9-15.6-9
					c-3.1,0-6.2,0.8-9,2.4c-0.4,0.2-0.8,0.4-1.3,0.4c-0.9,0-1.8-0.5-2.3-1.3c-0.4-0.6-0.4-1.3-0.3-2s0.6-1.2,1.2-1.6
					C228.9,38.8,233,37.7,237,37.7 M237,34.7c-4.5,0-9,1.1-13.1,3.5c-2.7,1.6-3.6,5-2.1,7.7c1,1.8,2.9,2.8,4.9,2.8
					c1,0,1.9-0.2,2.8-0.8c2.4-1.4,4.9-2,7.5-2c5.2,0,10.2,2.7,13,7.5c4.1,7.2,1.7,16.4-5.5,20.5c-2.7,1.6-3.6,5-2.1,7.7
					c1,1.8,2.9,2.8,4.9,2.8c1,0,1.9-0.2,2.8-0.8c12.6-7.2,16.9-23.4,9.6-35.9C255,39.5,246.1,34.7,237,34.7L237,34.7z"/>
			</g>
		</g>
		<g>
			<path class="st0" d="M236.6,70.4c-2.2,0-4.3-0.8-6-2.3c-2.7-2.4-3.8-6.3-2.6-9.7c0.9-2.6,2.9-4.7,5.4-5.6c2.6-1,5.4-0.7,7.7,0.6
				c0,0,0,0,0,0c4.4,2.5,5.9,8.1,3.4,12.4c-1.4,2.4-3.7,4-6.4,4.5C237.6,70.4,237.1,70.4,236.6,70.4z M236.6,55.2
				c-0.7,0-1.5,0.1-2.2,0.4c-1.7,0.7-3,2-3.6,3.8c-0.8,2.3-0.1,4.9,1.8,6.5c1.4,1.2,3.2,1.8,5.1,1.4c1.8-0.3,3.4-1.4,4.3-3
				c1.7-2.9,0.7-6.7-2.3-8.3C238.7,55.5,237.6,55.2,236.6,55.2z"/>
		</g>
		<g>
			<g>
				<path class="st0" d="M295.6,34.7l0,3h0c4.1,0,8.1,1.1,11.6,3.1c1.3,0.7,1.7,2.3,1,3.6c-0.5,0.8-1.3,1.3-2.3,1.3
					c-0.5,0-0.9-0.1-1.3-0.4c-2.7-1.6-5.8-2.4-9-2.4c-6.4,0-12.4,3.4-15.6,9c-5,8.6-2,19.6,6.6,24.6c1.3,0.7,1.7,2.3,1,3.6
					c-0.5,0.8-1.3,1.3-2.3,1.3c-0.5,0-0.9-0.1-1.3-0.4c-5.4-3.1-9.2-8.1-10.8-14.1c-1.6-6-0.8-12.3,2.3-17.7
					c4.1-7.2,11.9-11.6,20.2-11.6L295.6,34.7 M295.6,34.7c-9.1,0-17.9,4.7-22.8,13.1c-7.2,12.6-2.9,28.7,9.6,35.9
					c0.9,0.5,1.9,0.8,2.8,0.8c1.9,0,3.8-1,4.9-2.8c1.6-2.7,0.6-6.1-2.1-7.7c-7.2-4.1-9.6-13.3-5.5-20.5c2.8-4.8,7.8-7.5,13-7.5
					c2.5,0,5.1,0.6,7.5,2c0.9,0.5,1.9,0.8,2.8,0.8c1.9,0,3.8-1,4.9-2.8c1.6-2.7,0.6-6.1-2.1-7.7C304.5,35.9,300,34.7,295.6,34.7
					L295.6,34.7z"/>
			</g>
		</g>
		<g>
			<path class="st0" d="M296,70.4c-2.1,0-4.1-0.7-5.8-2.1c-2.1-1.7-3.3-4.3-3.3-7c0,0,0,0,0,0c0-5,4-9.1,9.1-9.1c0,0,0,0,0,0
				c2.7,0,5.3,1.2,7,3.3c1.7,2.1,2.4,4.9,1.9,7.6c-0.7,3.6-3.5,6.4-7.1,7.1C297.3,70.4,296.6,70.4,296,70.4z M289.9,61.3
				c0,1.8,0.8,3.5,2.2,4.7c1.4,1.2,3.2,1.6,5.1,1.3c2.4-0.5,4.3-2.4,4.7-4.8c0.4-1.9-0.1-3.7-1.3-5.1c-1.2-1.4-2.9-2.2-4.7-2.2
				c0,0,0,0,0,0C292.6,55.2,289.9,58,289.9,61.3L289.9,61.3z"/>
		</g>
	</g>
</g>
</svg>
